<?xml version="1.0" standalone="no"?>
<!DOCTYPE svg PUBLIC "-//W3C//DTD SVG 20010904//EN"
 "http://www.w3.org/TR/2001/REC-SVG-20010904/DTD/svg10.dtd">
<svg version="1.0" xmlns="http://www.w3.org/2000/svg"
 width="70.000000pt" height="70.000000pt" viewBox="0 0 70.000000 70.000000"
 preserveAspectRatio="xMidYMid meet">
<metadata>
Created by potrace 1.11, written by Peter Selinger 2001-2013
</metadata>
<g transform="translate(0.000000,70.000000) scale(0.100000,-0.100000)"
fill="#000000" stroke="none">
<path d="M502 568 c-10 -18 -41 -61 -68 -95 -27 -34 -58 -74 -68 -89 l-19 -27
-18 24 c-10 13 -25 44 -34 69 -36 99 -37 100 -61 100 -19 0 -25 -8 -34 -42 -7
-24 -22 -82 -36 -130 -28 -101 -30 -131 -9 -148 26 -21 37 2 40 82 1 40 12
100 22 133 l20 60 15 -51 c31 -99 71 -160 99 -149 8 3 43 46 77 96 35 50 66
89 68 87 2 -3 0 -38 -6 -79 -15 -115 -13 -174 8 -199 11 -14 23 -19 35 -15 19
8 23 40 6 51 -13 8 -3 273 12 313 7 17 6 27 -3 33 -20 12 -25 10 -46 -24z"/>
</g>
</svg>
